# xmcd
#
# Track frame offsets: 
#        180
#        22570
#        44487
#        72030
#        97822
#        131682
#        149365
#        167392
#        186812
#        206900
#
# Disc length: 2999 seconds
#
# Revision: 0
# Processed by: cddbd v1.5.2PL0 Copyright (c) Steve Scherf et al.
# Submitted via: ExactAudioCopy v0.99pb5
#
DISCID=800bb50a
DTITLE=Голубые Береты - От войны до войны
DYEAR=2005
DGENRE=Pop
TTITLE0=Русь
TTITLE1=Помниш, Мама
TTITLE2=Рак Душы
TTITLE3=Новый День
TTITLE4=Спасибо,Господин президент
TTITLE5=Разве это Было Зря
TTITLE6=Фотография
TTITLE7=Погоны России
TTITLE8=Дороги
TTITLE9=Экипажу 561
EXTD=
EXTT0=
EXTT1=
EXTT2=
EXTT3=
EXTT4=
EXTT5=
EXTT6=
EXTT7=
EXTT8=
EXTT9=
PLAYORDER=
